<?xml version="1.0" encoding="UTF-8"?>
<svg version="1.1" xmlns="http://www.w3.org/2000/svg" width="183" height="183">
<path d="M0 0 C22.7163301 -0.61395487 43.34862825 6.77720235 60.40625 21.71875 C61.94479296 23.17948736 63.46725324 24.65745864 64.96875 26.15625 C65.90267578 27.07277344 65.90267578 27.07277344 66.85546875 28.0078125 C83.13192644 45.19867793 86.57543498 67.05343824 86.3046875 89.8046875 C86.0344948 98.60046459 84.52369119 106.12909981 80.96875 114.15625 C80.68999023 114.7965918 80.41123047 115.43693359 80.12402344 116.09667969 C70.35267862 137.79274431 53.0382177 152.74587722 30.96875 161.15625 C26.7076277 162.55661397 22.39675443 163.45536764 17.96875 164.15625 C16.81375 164.383125 15.65875 164.61 14.46875 164.84375 C1.11767749 166.03581005 -12.57765828 164.88349629 -25.0390625 159.609375 C-30.45023473 158.37859857 -35.85880084 161.04165534 -40.84375 162.96875 C-41.55007568 163.23574707 -42.25640137 163.50274414 -42.98413086 163.77783203 C-46.76549266 165.22261197 -50.44382763 166.77551148 -54.09375 168.53125 C-57.86942672 170.2461566 -60.85034897 170.81207761 -65.03125 170.15625 C-67.46875 168.59375 -67.46875 168.59375 -69.03125 166.15625 C-69.93434813 158.18069665 -66.69811251 150.65381124 -64.34375 143.140625 C-64.02148438 142.06039062 -63.69921875 140.98015625 -63.3671875 139.8671875 C-63.06345215 138.89056152 -62.7597168 137.91393555 -62.44677734 136.90771484 C-61.66147374 131.70773155 -64.65786406 128.03340646 -67.34375 123.78125 C-78.09720254 105.56758976 -81.22289724 82.67820637 -76.03125 62.15625 C-69.38433093 39.04004159 -55.53388117 21.10364516 -34.6015625 9.20703125 C-23.67658151 3.90480942 -12.10420958 0.62392833 0 0 Z M-44.03125 35.15625 C-44.73121094 35.82140625 -45.43117188 36.4865625 -46.15234375 37.171875 C-58.66397448 49.95178631 -63.549161 66.95813282 -63.37890625 84.39404297 C-62.98109804 99.07368945 -58.02261134 113.39877795 -48.28125 124.59375 C-46.65303949 126.84181545 -45.97567687 128.3086001 -46.15869141 131.10009766 C-46.89709076 135.60343443 -48.12682498 139.94151735 -49.47705078 144.29492188 C-50.15054471 146.55691206 -50.62414527 148.83255108 -51.03125 151.15625 C-46.93184442 149.85465832 -43.07078412 148.30680792 -39.15625 146.53125 C-30.52561489 142.95372967 -25.37608249 143.80969992 -16.7265625 147.1328125 C-0.83439939 153.16722806 16.61609558 150.83551373 32.17578125 144.94140625 C48.26182401 137.66790068 61.48502857 123.5442388 67.96875 107.15625 C74.05100941 88.70502609 73.42239674 69.85203422 65.46875 52.02734375 C56.17680723 34.24198455 41.76697085 23.51582076 23.09765625 17.1015625 C-1.29740423 9.73126957 -26.3531215 17.5666597 -44.03125 35.15625 Z " fill="#2BAAAA" transform="translate(90.03125,5.84375)"/>
<path d="M0 0 C7.87434488 0.51354423 15.16046208 3.48785232 20.4375 9.5 C22.52309435 12.20004708 24.36461476 15.00179372 26 18 C27.65 17.34 29.3 16.68 31 16 C40.18899549 24.69358878 44.98015357 34.86943046 48 47 C48.26151855 47.95616211 48.26151855 47.95616211 48.52832031 48.93164062 C51.61643633 62.47331709 48.41495719 77.3180827 41.328125 89.015625 C33.83538055 100.2106667 21.80233089 107.54360768 8.625 110.25 C-6.24281737 112.56921385 -20.3429602 110.43802653 -33 102 C-32.09284456 97.62029898 -29.80373241 94.39113617 -27.3125 90.75 C-26.86277832 90.08411865 -26.41305664 89.4182373 -25.94970703 88.73217773 C-22.7674278 84.04788556 -19.47099697 79.47575925 -16 75 C-11.75091664 76.59846469 -9.17774261 79.8130392 -6.25 83.125 C-5.74339844 83.68832031 -5.23679688 84.25164062 -4.71484375 84.83203125 C-3.47115468 86.21651531 -2.23483695 87.60761488 -1 89 C2.16115776 87.63016497 2.9927092 87.0109362 5 84 C5.66 84 6.32 84 7 84 C7.20753906 83.4740625 7.41507813 82.948125 7.62890625 82.40625 C9.58310548 78.97665819 12.22379692 76.34600014 14.9375 73.5 C19.72649773 68.46868498 19.72649773 68.46868498 24 63 C28 64 28 64 34 70 C34.99 60.43 35.98 50.86 37 41 C29.98356047 42.63945181 29.98356047 42.63945181 22.9699707 44.29101562 C22.08913818 44.49404297 21.20830566 44.69707031 20.30078125 44.90625 C19.40528564 45.11572266 18.50979004 45.32519531 17.5871582 45.54101562 C15.00030935 45.99994512 12.62111026 46.08261971 10 46 C10.763125 46.763125 11.52625 47.52625 12.3125 48.3125 C13.199375 49.199375 14.08625 50.08625 15 51 C15.61875 51.495 16.2375 51.99 16.875 52.5 C18 54 18 54 17.828125 56.29296875 C16.80300868 59.64393862 15.28630208 61.28267629 12.875 63.8125 C12.06933594 64.67230469 11.26367188 65.53210938 10.43359375 66.41796875 C9.63050781 67.27003906 8.82742187 68.12210937 8 69 C6.63813911 70.53487407 5.28306082 72.07581648 3.9375 73.625 C3.36902344 74.27726562 2.80054688 74.92953125 2.21484375 75.6015625 C1.81394531 76.06304687 1.41304687 76.52453125 1 77 C-2.70694893 76.44841898 -4.10342371 75.11773346 -6.4375 72.25 C-7.03949219 71.53328125 -7.64148438 70.8165625 -8.26171875 70.078125 C-8.83535156 69.39234375 -9.40898438 68.7065625 -10 68 C-11.6073804 66.19008105 -13.1837072 64.61448248 -15 63 C-15.99 63 -16.98 63 -18 63 C-19.72381416 65.42901086 -21.24816394 67.81346386 -22.75 70.375 C-23.6398514 71.84761044 -24.53178196 73.31896649 -25.42578125 74.7890625 C-25.86229004 75.5099707 -26.29879883 76.23087891 -26.74853516 76.97363281 C-30.1813488 82.5320318 -34.06769796 87.78823251 -38 93 C-40.54074441 92.01252581 -41.78701723 91.33590802 -43.265625 89.00390625 C-47.14728229 79.37678004 -47.16326958 71.276949 -43.265625 61.62890625 C-40.48841096 55.86018697 -36.71330036 50.9179702 -32.8125 45.875 C-28.88373291 40.70502972 -26.95833239 35.17627906 -25 29 C-21.48147191 30.1728427 -21.25274673 30.83086877 -19.5 33.9375 C-17.78461026 36.96692226 -17.00765117 37.99489922 -14 40 C-9.24824843 40.4673854 -6.96413144 40.4911613 -2.6875 38.3125 C1.94228531 34.32873125 3.74603231 30.33088392 4.203125 24.3359375 C4.3002465 18.20109582 3.78632228 13.05660129 1.75390625 7.25390625 C0.95195277 4.85635621 0.45144694 2.48514964 0 0 Z " fill="#F98A1D" transform="translate(96,31)"/>
<path d="M0 0 C6.23548004 5.50711912 8.55404249 15.89191983 9.14160156 23.93945312 C9.9752618 39.50578127 7.05102564 53.05728854 -2.625 65.625 C-11.98726228 75.9980978 -26.12804673 81.26083037 -39.7578125 82.1875 C-51.91676073 82.46462703 -62.81030303 79.79313132 -73 73 C-72.09284456 68.62029898 -69.80373241 65.39113617 -67.3125 61.75 C-66.86277832 61.08411865 -66.41305664 60.4182373 -65.94970703 59.73217773 C-62.7674278 55.04788556 -59.47099697 50.47575925 -56 46 C-51.75091664 47.59846469 -49.17774261 50.8130392 -46.25 54.125 C-45.74339844 54.68832031 -45.23679687 55.25164062 -44.71484375 55.83203125 C-43.47115468 57.21651531 -42.23483695 58.60761488 -41 60 C-37.83884224 58.63016497 -37.0072908 58.0109362 -35 55 C-34.34 55 -33.68 55 -33 55 C-32.79246094 54.4740625 -32.58492187 53.948125 -32.37109375 53.40625 C-30.41689452 49.97665819 -27.77620308 47.34600014 -25.0625 44.5 C-20.27350227 39.46868498 -20.27350227 39.46868498 -16 34 C-12.64749299 34.57575664 -11.06181371 35.59306263 -8.75 38.0625 C-7.96882813 38.88427734 -7.96882813 38.88427734 -7.171875 39.72265625 C-6.78515625 40.14417969 -6.3984375 40.56570312 -6 41 C-5.91435791 40.14768799 -5.82871582 39.29537598 -5.74047852 38.41723633 C-5.41999633 35.23946397 -5.09732543 32.06192346 -4.77319336 28.88452148 C-4.63365036 27.51221395 -4.49496688 26.13981873 -4.35717773 24.76733398 C-4.15837816 22.78866823 -3.95617774 20.8103451 -3.75390625 18.83203125 C-3.63345947 17.64327393 -3.5130127 16.4545166 -3.38891602 15.22973633 C-3.05310829 12.4410355 -2.59910528 9.74231963 -2 7 C-1.01 6.67 -0.02 6.34 1 6 C0.505 3.03 0.505 3.03 0 0 Z " fill="#F15E20" transform="translate(136,60)"/>
<path d="M0 0 C8.75502384 0.19032661 15.14595682 5.90372055 21 12 C20.67 12.66 20.34 13.32 20 14 C18.68 14 17.36 14 16 14 C14.65022151 14.63270867 13.31647119 15.30062468 12 16 C10.67199659 16.3539715 9.33903142 16.69034898 8 17 C7.95101562 17.99902344 7.90203125 18.99804688 7.8515625 20.02734375 C7.77679688 21.31769531 7.70203125 22.60804687 7.625 23.9375 C7.55539063 25.22527344 7.48578125 26.51304688 7.4140625 27.83984375 C7.27742188 28.88269531 7.14078125 29.92554688 7 31 C6.34 31.33 5.68 31.66 5 32 C5.33 25.07 5.66 18.14 6 11 C5.01 10.67 4.02 10.34 3 10 C0.78248601 6.30414334 0 4.36991627 0 0 Z " fill="#F2AD1E" transform="translate(96,31)"/>
<path d="M0 0 C4.60470588 1.45411765 4.60470588 1.45411765 6.3125 3.8125 C7.37628229 7.19726185 7.54711261 9.79635227 6.0625 13.0625 C5.711875 13.701875 5.36125 14.34125 5 15 C4.65220231 16.32963365 4.32270316 17.66405406 4 19 C2.98937947 22.53296093 1.96394199 26.0614494 0.9375 29.58984375 C-0.25754214 33.7522018 -0.25754214 33.7522018 -1 38 C-0.34 38.99 0.32 39.98 1 41 C3.20725073 41.36362818 3.20725073 41.36362818 5.625 41.1875 C6.44226562 41.16042969 7.25953125 41.13335937 8.1015625 41.10546875 C9.04128906 41.05326172 9.04128906 41.05326172 10 41 C7.71203922 43.62176661 7.22997927 43.97072991 3.5625 44.4375 C0 44 0 44 -2.4375 42.4375 C-4.51317152 39.19945243 -4.46247011 36.70495715 -4 33 C-2.67375423 27.59385861 -0.97648073 22.29443116 0.6875 16.984375 C1.00976562 15.90414062 1.33203125 14.82390625 1.6640625 13.7109375 C1.96779785 12.73431152 2.2715332 11.75768555 2.58447266 10.75146484 C3.07970341 7.47223416 2.44515491 5.93895372 1 3 C0.67 2.01 0.34 1.02 0 0 Z " fill="#1C6F76" transform="translate(25,132)"/>
<path d="M0 0 C0.495 0.99 0.495 0.99 1 2 C0.030625 1.690625 -0.93875 1.38125 -1.9375 1.0625 C-5.60470741 -0.00554615 -9.18233402 -0.39037301 -12.984375 -0.65625 C-15 -1 -15 -1 -18 -3 C-20.5995764 -3.46380108 -23.13169694 -3.83354656 -25.75 -4.125 C-26.4409375 -4.21136719 -27.131875 -4.29773438 -27.84375 -4.38671875 C-34.69749443 -5.19834638 -41.10590811 -5.10657956 -47.9375 -4 C-53.05105966 -3.22505286 -57.83803412 -2.79352136 -63 -3 C-46.09714203 -14.26857198 -17.25861451 -7.86369954 0 0 Z " fill="#448781" transform="translate(131,14)"/>
<path d="M0 0 C6.21186355 -0.46881989 10.52054153 0.75431568 16.3046875 2.9765625 C28.41953494 7.57669298 42.32794957 6.8773408 55 5 C52.61584476 8.8207616 52.61584476 8.8207616 49.90625 9.609375 C49.1121875 9.65578125 48.318125 9.7021875 47.5 9.75 C46.16388672 9.82927734 46.16388672 9.82927734 44.80078125 9.91015625 C43.87652344 9.93980469 42.95226562 9.96945313 42 10 C41.12730469 10.03996094 40.25460938 10.07992187 39.35546875 10.12109375 C28.6603178 10.38729809 18.51697827 9.06588507 9 4 C9 3.34 9 2.68 9 2 C6.03 1.67 3.06 1.34 0 1 C0 0.67 0 0.34 0 0 Z " fill="#187A80" transform="translate(57,149)"/>
<path d="M0 0 C0.99 0 1.98 0 3 0 C1.31183243 4.34100231 -0.65263572 8.50606364 -2.68359375 12.6953125 C-6.51125211 22.30421153 -7.40433548 30.8739148 -7.1875 41.1875 C-7.17396484 42.42564453 -7.16042969 43.66378906 -7.14648438 44.93945312 C-7.11149611 47.9601071 -7.06240724 50.9798094 -7 54 C-9 53 -9 53 -10.140625 50.5859375 C-11.28312705 45.81858804 -11.04471468 41.49121919 -10.75 36.625 C-10.71003906 35.7175 -10.67007812 34.81 -10.62890625 33.875 C-10.33364302 28.33681949 -9.52371385 23.33299849 -8 18 C-7.34 18 -6.68 18 -6 18 C-6.04640625 17.18015625 -6.0928125 16.3603125 -6.140625 15.515625 C-6.17671875 14.43796875 -6.2128125 13.3603125 -6.25 12.25 C-6.29640625 11.18265625 -6.3428125 10.1153125 -6.390625 9.015625 C-6 6 -6 6 -4.109375 3.609375 C-2 2 -2 2 0 2 C0 1.34 0 0.68 0 0 Z " fill="#318482" transform="translate(35,50)"/>
<path d="M0 0 C2.68211147 0.28382132 4.79531124 1.05917349 7.21484375 2.234375 C8.54160883 2.59296016 9.87320296 2.9362326 11.21484375 3.234375 C11.21484375 3.894375 11.21484375 4.554375 11.21484375 5.234375 C25.95000373 5.37407532 40.60987568 5.45687014 55.21484375 3.234375 C55.21484375 2.574375 55.21484375 1.914375 55.21484375 1.234375 C56.86484375 1.234375 58.51484375 1.234375 60.21484375 1.234375 C51.29371961 9.00508654 34.46595787 8.91589838 23.21484375 8.234375 C16.07859041 7.34516005 8.96076532 6.00828014 2.21484375 3.484375 C-2.10107533 1.87941858 -5.3061745 2.33857865 -9.78515625 3.234375 C-6.77810819 -0.39515116 -4.47951761 -0.14520316 0 0 Z " fill="#1D787D" transform="translate(64.78515625,162.765625)"/>
<path d="M0 0 C0.68707555 2.49064888 1 4.37886292 1 7 C1.33 7.66 1.66 8.32 2 9 C1.34 9 0.68 9 0 9 C-0.33 9.66 -0.66 10.32 -1 11 C-1.5775 11.268125 -2.155 11.53625 -2.75 11.8125 C-6.40542056 13.74174974 -9.24976295 16.45539432 -11.0625 20.1875 C-12.31046664 22.6002355 -13.50525593 23.00210237 -16 24 C-16.845625 24.4125 -17.69125 24.825 -18.5625 25.25 C-19.366875 25.4975 -20.17125 25.745 -21 26 C-21.99 25.34 -22.98 24.68 -24 24 C-23.443125 23.57589844 -22.88625 23.15179688 -22.3125 22.71484375 C-19.85920359 20.82928654 -17.42643914 18.91998611 -15 17 C-14.29617187 16.44828125 -13.59234375 15.8965625 -12.8671875 15.328125 C-7.49906824 10.90732091 -3.75325279 5.82927074 0 0 Z " fill="#18888A" transform="translate(152,123)"/>
<path d="M0 0 C0.33 0.99 0.66 1.98 1 3 C0.01 4.485 0.01 4.485 -1 6 C-1.66 6 -2.32 6 -3 6 C-3.66 8.31 -4.32 10.62 -5 13 C-4.34 13.33 -3.68 13.66 -3 14 C-3 14.66 -3 15.32 -3 16 C-1.88625 15.95875 -0.7725 15.9175 0.375 15.875 C4 16 4 16 6 18 C9.60730283 18.99340526 12.96283149 19.08130245 16.6875 19 C21.77950713 18.88975357 21.77950713 18.88975357 24 20 C25.87056791 20.2275015 27.74685958 20.40962811 29.625 20.5625 C30.62789062 20.64628906 31.63078125 20.73007813 32.6640625 20.81640625 C33.43492188 20.87699219 34.20578125 20.93757813 35 21 C35 21.33 35 21.66 35 22 C19.75637144 24.70997841 5.02984512 22.68656341 -8 14 C-7.37606349 10.23880524 -5.65226285 7.81039958 -3.4375 4.75 C-2.79683594 3.85796875 -2.15617187 2.9659375 -1.49609375 2.046875 C-0.75552734 1.03367187 -0.75552734 1.03367187 0 0 Z " fill="#AD3F2D" transform="translate(71,119)"/>
<path d="M0 0 C5.12140446 7.6821067 3.10026352 20.02084487 3 29 C2.67 29 2.34 29 2 29 C1.93941406 28.13117188 1.87882813 27.26234375 1.81640625 26.3671875 C1.73261719 25.21476562 1.64882812 24.06234375 1.5625 22.875 C1.48128906 21.73804687 1.40007812 20.60109375 1.31640625 19.4296875 C1.02269035 16.2459522 0.56875687 13.14489093 0 10 C-1.65 10 -3.3 10 -5 10 C-5.2165625 11.546875 -5.2165625 11.546875 -5.4375 13.125 C-5.91660457 16.42549813 -6.43875083 19.71268341 -7 23 C-7.33 23 -7.66 23 -8 23 C-8.24091535 15.7725395 -7.34495828 9.09705662 -6 2 C-4.02 1.34 -2.04 0.68 0 0 Z " fill="#E38524" transform="translate(141,70)"/>
<path d="M0 0 C2.84574968 1.27568089 5.18089981 2.41496289 7 5 C6.67275562 9.49009733 4.9241819 11.61344305 1.875 14.8125 C1.06933594 15.67230469 0.26367188 16.53210938 -0.56640625 17.41796875 C-1.36949219 18.27003906 -2.17257813 19.12210938 -3 20 C-4.36186089 21.53487407 -5.71693918 23.07581648 -7.0625 24.625 C-7.63097656 25.27726562 -8.19945313 25.92953125 -8.78515625 26.6015625 C-9.18605469 27.06304687 -9.58695312 27.52453125 -10 28 C-11.890625 27.66015625 -11.890625 27.66015625 -14 27 C-15.75 24.4375 -15.75 24.4375 -17 22 C-14.36 22.66 -11.72 23.32 -9 24 C-9 23.34 -9 22.68 -9 22 C-8.34 22 -7.68 22 -7 22 C-7 21.01 -7 20.02 -7 19 C-6.01 19 -5.02 19 -4 19 C-4 18.01 -4 17.02 -4 16 C-3.01 16 -2.02 16 -1 16 C-0.67 14.35 -0.34 12.7 0 11 C0.99 11 1.98 11 3 11 C2.65772428 8.02934491 2.65772428 8.02934491 2 5 C1.34 4.67 0.68 4.34 0 4 C0 2.68 0 1.36 0 0 Z " fill="#A85E29" transform="translate(107,80)"/>
<path d="M0 0 C0.66 0 1.32 0 2 0 C2.63686231 20.54470653 2.63686231 20.54470653 -3 29 C-3.99 29.33 -4.98 29.66 -6 30 C-6.33 30.66 -6.66 31.32 -7 32 C-9.12493141 32.02693575 -11.24995912 32.04636628 -13.375 32.0625 C-14.55835937 32.07410156 -15.74171875 32.08570313 -16.9609375 32.09765625 C-20 32 -20 32 -22 31 C-22.88855792 29.59596456 -23.71410295 28.15147286 -24.5 26.6875 C-24.9228125 25.90761719 -25.345625 25.12773438 -25.78125 24.32421875 C-26.88034495 22.22818832 -27.95132286 20.12162922 -29 18 C-25.48147191 19.1728427 -25.25274673 19.83086877 -23.5 22.9375 C-21.78461026 25.96692226 -21.00765117 26.99489922 -18 29 C-13.24824843 29.4673854 -10.96413144 29.4911613 -6.6875 27.3125 C-2.85977051 24.0188723 -1.01349841 20.89733433 0 16 C0.06926968 13.24029592 0.0941736 10.50803958 0.0625 7.75 C0.05798828 7.00492188 0.05347656 6.25984375 0.04882812 5.4921875 C0.03709246 3.6614236 0.0191585 1.83070127 0 0 Z " fill="#A9722F" transform="translate(100,42)"/>
<path d="M0 0 C0 4.92574507 -1.16961844 8.08658028 -4.5 11.75 C-7.93505461 15.53970626 -8.34776106 20.07413573 -9 25 C-9.66 24.34 -10.32 23.68 -11 23 C-11.33 24.65 -11.66 26.3 -12 28 C-12.33 28 -12.66 28 -13 28 C-13.33 30.97 -13.66 33.94 -14 37 C-14.33 37 -14.66 37 -15 37 C-15.97251485 23.03360613 -10.84094982 13.00528052 -2.125 2.4375 C-1.073125 1.2309375 -1.073125 1.2309375 0 0 Z " fill="#B96D28" transform="translate(65,75)"/>
<path d="M0 0 C0.309375 0.639375 0.61875 1.27875 0.9375 1.9375 C1.8345163 3.93610821 1.8345163 3.93610821 3 5 C3.04063832 6.66617115 3.042721 8.33388095 3 10 C3.66 10 4.32 10 5 10 C5 21.88 5 33.76 5 46 C3.515 46.495 3.515 46.495 2 47 C2.0721875 46.29617187 2.144375 45.59234375 2.21875 44.8671875 C3.4629436 31.63035008 3.19147491 19.94779717 0 7 C-1.12774071 2.25548141 -1.12774071 2.25548141 0 0 Z " fill="#368B84" transform="translate(158,60)"/>
<path d="M0 0 C6.54798145 1.47329583 11.6040097 5.54656146 15.3984375 11.015625 C16.33041356 12.64162579 17.17562011 14.31689105 18 16 C19.65 15.34 21.3 14.68 23 14 C26.63559661 17.43361902 29.36113346 20.7973607 32 25 C31.67 25.66 31.34 26.32 31 27 C26.19064125 22.32062392 26.19064125 22.32062392 24.625 19.6875 C22.96227788 17.58269762 22.96227788 17.58269762 19.3125 17.75 C18.219375 17.8325 17.12625 17.915 16 18 C15.70867187 17.40832031 15.41734375 16.81664063 15.1171875 16.20703125 C11.26282817 8.777087 7.22648756 5.25087503 0 1 C0 0.67 0 0.34 0 0 Z " fill="#816025" transform="translate(104,33)"/>
<path d="M0 0 C2.34191563 2.1290142 3.83554954 4.04408729 5 7 C5 8.32 5 9.64 5 11 C3.35 11.33 1.7 11.66 0 12 C-1.83402901 21.95058292 -2.94967756 31.9437213 -4 42 C-4.33 42 -4.66 42 -5 42 C-5.23899916 34.17720355 -4.50059759 26.62737772 -3.5 18.875 C-3.35691406 17.72773437 -3.21382812 16.58046875 -3.06640625 15.3984375 C-2.71637972 12.59822529 -2.3608104 9.79883952 -2 7 C-1.01 6.67 -0.02 6.34 1 6 C0.67 4.02 0.34 2.04 0 0 Z " fill="#A97223" transform="translate(136,60)"/>
<path d="M0 0 C0.99 0 1.98 0 3 0 C0.65757809 9.89022586 -7.26986646 17.76292134 -14 25 C-14.625 23.125 -14.625 23.125 -15 21 C-14.34 20.34 -13.68 19.68 -13 19 C-12.01 19 -11.02 19 -10 19 C-9.67 17.35 -9.34 15.7 -9 14 C-8.01 14 -7.02 14 -6 14 C-6.0825 13.278125 -6.165 12.55625 -6.25 11.8125 C-5.92256852 8.12889581 -4.53906064 6.61373889 -2 4 C-1.34 4 -0.68 4 0 4 C0 2.68 0 1.36 0 0 Z " fill="#237574" transform="translate(165,124)"/>
<path d="M0 0 C1.90279092 2.85418638 3.00616337 5.38242436 4.25 8.5625 C7.17508384 15.69832401 10.86329184 22.11365928 15.4375 28.3125 C17 31 17 31 16.75 33.875 C16.5025 34.57625 16.255 35.2775 16 36 C15.67 36 15.34 36 15 36 C15 34.02 15 32.04 15 30 C13.68 30 12.36 30 11 30 C7.95115395 24.12008262 5.38262109 18.17716579 3 12 C2.69707031 11.24976562 2.39414062 10.49953125 2.08203125 9.7265625 C0.69486585 6.22283019 0 3.8216702 0 0 Z " fill="#1B585A" transform="translate(28,104)"/>
<path d="M0 0 C2.4375 1.3125 2.4375 1.3125 3.25 3.4375 C3.311875 4.05625 3.37375 4.675 3.4375 5.3125 C2.4475 5.6425 1.4575 5.9725 0.4375 6.3125 C-0.29573796 8.32758358 -0.29573796 8.32758358 -0.5625 10.3125 C-1.8825 10.3125 -3.2025 10.3125 -4.5625 10.3125 C-4.5625 9.6525 -4.5625 8.9925 -4.5625 8.3125 C-5.5525 7.9825 -6.5425 7.6525 -7.5625 7.3125 C-4.18805066 -1.12362335 -4.18805066 -1.12362335 0 0 Z " fill="#F45323" transform="translate(72.5625,124.6875)"/>
<path d="M0 0 C4.60470588 1.45411765 4.60470588 1.45411765 6.3125 3.8125 C7.37628229 7.19726185 7.54711261 9.79635227 6.0625 13.0625 C5.711875 13.701875 5.36125 14.34125 5 15 C4.64240008 16.32703097 4.31206602 17.66152935 4 19 C3.33333333 21.66666667 2.66666667 24.33333333 2 27 C1.67 27 1.34 27 1 27 C0.80718939 21.36564554 0.82412205 16.18283321 2.1875 10.6875 C3.04976665 6.95894006 3.05912509 6.15587523 1.625 2.375 C1.08875 1.59125 0.5525 0.8075 0 0 Z " fill="#15777A" transform="translate(25,132)"/>
<path d="M0 0 C0.99 0 1.98 0 3 0 C1.69050967 8.02590846 -3.01960315 15.50979961 -9 21 C-9.99 21.33 -10.98 21.66 -12 22 C-11.625 19.5625 -11.625 19.5625 -11 17 C-10.34 16.67 -9.68 16.34 -9 16 C-9 15.34 -9 14.68 -9 14 C-7.68 14 -6.36 14 -5 14 C-5 12.35 -5 10.7 -5 9 C-4.34 9 -3.68 9 -3 9 C-2.87625 8.443125 -2.7525 7.88625 -2.625 7.3125 C-1.94023145 4.77885636 -1.00866237 2.42078968 0 0 Z " fill="#A75525" transform="translate(139,108)"/>
<path d="M0 0 C-5.32534912 5.85788403 -11.95043936 11.90755963 -20 13 C-20 13.66 -20 14.32 -20 15 C-20.66 14.67 -21.32 14.34 -22 14 C-18.53260966 10.41150595 -14.96611747 7.23797045 -11 4.1875 C-9.4840625 3.00220703 -9.4840625 3.00220703 -7.9375 1.79296875 C-4.88809527 -0.06830355 -3.48629311 -0.42937801 0 0 Z " fill="#4BBBB7" transform="translate(57,17)"/>
<path d="M0 0 C0.33 0 0.66 0 1 0 C1.33 10.56 1.66 21.12 2 32 C0 31 0 31 -1.14453125 28.6015625 C-2.29660436 23.75128212 -2.00521842 19.32184168 -1.6875 14.375 C-1.63916016 13.43398437 -1.59082031 12.49296875 -1.54101562 11.5234375 C-1.31817502 7.55179726 -1.07479163 3.84366221 0 0 Z " fill="#2C7675" transform="translate(26,72)"/>
<path d="M0 0 C0.66 0.99 1.32 1.98 2 3 C0.625 4.5 0.625 4.5 -1 6 C-1.66 6 -2.32 6 -3 6 C-3 6.66 -3 7.32 -3 8 C-3.99 8 -4.98 8 -6 8 C-5.938125 8.763125 -5.87625 9.52625 -5.8125 10.3125 C-6 13 -6 13 -7.0625 14.625 C-9.86292421 16.61239782 -12.80805499 17.73526707 -16 19 C-16 18.34 -16 17.68 -16 17 C-15.34 17 -14.68 17 -14 17 C-13.72816895 16.40670898 -13.45633789 15.81341797 -13.17626953 15.20214844 C-12.02532728 13.04741637 -10.84570945 11.53798878 -9.1796875 9.765625 C-8.64472656 9.19199219 -8.10976562 8.61835937 -7.55859375 8.02734375 C-7.00300781 7.44082031 -6.44742188 6.85429688 -5.875 6.25 C-5.31167969 5.64800781 -4.74835938 5.04601562 -4.16796875 4.42578125 C-2.78275854 2.94665849 -1.3919271 1.47280359 0 0 Z " fill="#945023" transform="translate(117,98)"/>
<path d="M0 0 C2.01412972 0.07610185 4.02772536 0.1248274 6.04272461 0.17163086 C7.31438477 0.21610352 8.58604492 0.26057617 9.89624023 0.30639648 C11.05728271 0.34531006 12.2183252 0.38422363 13.41455078 0.42431641 C16.32202148 0.88842773 16.32202148 0.88842773 19.32202148 3.88842773 C16.35202148 3.88842773 13.38202148 3.88842773 10.32202148 3.88842773 C10.32202148 3.22842773 10.32202148 2.56842773 10.32202148 1.88842773 C6.65512177 2.02873357 2.98856736 2.17668194 -0.67797852 2.32592773 C-1.70793945 2.36524414 -2.73790039 2.40456055 -3.79907227 2.44506836 C-9.48038927 2.68028212 -15.04844119 3.08324151 -20.67797852 3.88842773 C-15.18280519 -1.60674559 -7.15390521 -0.28194028 0 0 Z " fill="#54BAB3" transform="translate(94.677978515625,18.111572265625)"/>
<path d="M0 0 C0.33 0.99 0.66 1.98 1 3 C1.99 3 2.98 3 4 3 C4 3.99 4 4.98 4 6 C5.32 6 6.64 6 8 6 C8.33 5.34 8.66 4.68 9 4 C9.66 4 10.32 4 11 4 C11 3.01 11 2.02 11 1 C11.99 1.33 12.98 1.66 14 2 C11.69 5.3 9.38 8.6 7 12 C2.44323025 9.72161512 1.83400621 8.58501552 0 4 C0 2.68 0 1.36 0 0 Z " fill="#944022" transform="translate(51,112)"/>
<path d="M0 0 C-1.38596139 1.99231949 -2.54374514 2.89083473 -4.91015625 3.45703125 C-10.55046362 4.22476819 -10.55046362 4.22476819 -13 3 C-15.4414543 2.79197076 -17.86678005 2.62589979 -20.3125 2.5 C-24.63927588 2.26268418 -28.77417526 1.98084907 -33 1 C-33 0.67 -33 0.34 -33 0 C-32.30438965 0.00523682 -31.6087793 0.01047363 -30.89208984 0.01586914 C-27.71973587 0.03674337 -24.54739639 0.04969332 -21.375 0.0625 C-19.73337891 0.07506836 -19.73337891 0.07506836 -18.05859375 0.08789062 C-16.99511719 0.09111328 -15.93164062 0.09433594 -14.8359375 0.09765625 C-13.86188965 0.10289307 -12.8878418 0.10812988 -11.88427734 0.11352539 C-8.93602369 0.06359156 -8.93602369 0.06359156 -5.82275391 -0.56860352 C-3 -1 -3 -1 0 0 Z " fill="#175C5F" transform="translate(112,155)"/>
<path d="M0 0 C3.51852809 1.1728427 3.74725327 1.83086877 5.5 4.9375 C7.21538974 7.96692226 7.99234883 8.99489922 11 11 C13.73872955 11.45772063 13.73872955 11.45772063 16.6875 11.625 C17.68136719 11.69976562 18.67523438 11.77453125 19.69921875 11.8515625 C20.45847656 11.90054688 21.21773437 11.94953125 22 12 C22 12.66 22 13.32 22 14 C19.87506859 14.02693575 17.75004088 14.04636628 15.625 14.0625 C14.44164063 14.07410156 13.25828125 14.08570312 12.0390625 14.09765625 C9 14 9 14 7 13 C6.11144208 11.59596456 5.28589705 10.15147286 4.5 8.6875 C3.86578125 7.51767578 3.86578125 7.51767578 3.21875 6.32421875 C2.11965505 4.22818832 1.04867714 2.12162922 0 0 Z " fill="#996326" transform="translate(71,60)"/>
<path d="M0 0 C2.68211147 0.28382132 4.79531124 1.05917349 7.21484375 2.234375 C8.54160883 2.59296016 9.87320296 2.9362326 11.21484375 3.234375 C11.21484375 3.894375 11.21484375 4.554375 11.21484375 5.234375 C12.86484375 5.234375 14.51484375 5.234375 16.21484375 5.234375 C16.21484375 5.564375 16.21484375 5.894375 16.21484375 6.234375 C11.36737557 5.8496553 7.20216667 5.34528305 2.65234375 3.609375 C-1.88786286 1.95475745 -5.08205278 2.29375431 -9.78515625 3.234375 C-6.77810819 -0.39515116 -4.47951761 -0.14520316 0 0 Z " fill="#1B6D6F" transform="translate(64.78515625,162.765625)"/>
<path d="M0 0 C1.65 0 3.3 0 5 0 C-1.42443232 7.04615157 -9.21156894 11.46800643 -18 15 C-18 14.34 -18 13.68 -18 13 C-16.37750059 12.16180842 -14.75191503 11.3295884 -13.125 10.5 C-12.22007812 10.0359375 -11.31515625 9.571875 -10.3828125 9.09375 C-8 8 -8 8 -6 8 C-6 7.01 -6 6.02 -6 5 C-4.35 4.67 -2.7 4.34 -1 4 C-0.67 2.68 -0.34 1.36 0 0 Z " fill="#1B6364" transform="translate(145,149)"/>
<path d="M0 0 C-4.97281557 4.36574458 -9.96836982 8.70214922 -15 13 C-15.33 12.01 -15.66 11.02 -16 10 C-15.01 10 -14.02 10 -13 10 C-13 9.01 -13 8.02 -13 7 C-12.34 7 -11.68 7 -11 7 C-11 6.01 -11 5.02 -11 4 C-10.34 4 -9.68 4 -9 4 C-9 3.34 -9 2.68 -9 2 C-8.01 2 -7.02 2 -6 2 C-6 1.34 -6 0.68 -6 0 C-3 -1 -3 -1 0 0 Z " fill="#3A857F" transform="translate(55,34)"/>
<path d="M0 0 C0.33 0.66 0.66 1.32 1 2 C0.525625 2.5775 0.05125 3.155 -0.4375 3.75 C-2.09418867 5.84682179 -2.09418867 5.84682179 -2.5 8.0625 C-3 10 -3 10 -4.5 11.375 C-6.63927399 13.69254683 -6.659511 15.93559899 -7 19 C-7.66 19 -8.32 19 -9 19 C-9 19.66 -9 20.32 -9 21 C-9.99 21.33 -10.98 21.66 -12 22 C-10.67219091 17.5739697 -8.92222599 13.84339941 -6.5625 9.875 C-5.96566406 8.86179687 -5.36882813 7.84859375 -4.75390625 6.8046875 C-3.26917682 4.43044311 -1.72385664 2.20358433 0 0 Z " fill="#317572" transform="translate(30,36)"/>
<path d="M0 0 C0.33 0.99 0.66 1.98 1 3 C0.01 4.485 0.01 4.485 -1 6 C-1.66 6 -2.32 6 -3 6 C-3.66 8.31 -4.32 10.62 -5 13 C-4.34 13.33 -3.68 13.66 -3 14 C-3 14.66 -3 15.32 -3 16 C-1.68 16.33 -0.36 16.66 1 17 C0.34 17.33 -0.32 17.66 -1 18 C-3.4750171 16.88568235 -5.67883419 15.41849022 -8 14 C-7.37606349 10.23880524 -5.65226285 7.81039958 -3.4375 4.75 C-2.79683594 3.85796875 -2.15617187 2.9659375 -1.49609375 2.046875 C-0.75552734 1.03367187 -0.75552734 1.03367187 0 0 Z " fill="#7D3923" transform="translate(71,119)"/>
<path d="M0 0 C0.33 0 0.66 0 1 0 C1 8.25 1 16.5 1 25 C0.01 25.33 -0.98 25.66 -2 26 C-1.34 17.42 -0.68 8.84 0 0 Z " fill="#2F7C7A" transform="translate(162,81)"/>
<path d="M0 0 C-2.0625 2.5625 -2.0625 2.5625 -5 5 C-8.8125 4.8125 -8.8125 4.8125 -12 4 C-12.33 4.99 -12.66 5.98 -13 7 C-13.66 7 -14.32 7 -15 7 C-15.33 6.01 -15.66 5.02 -16 4 C-13.90049414 3.13444052 -11.7952093 2.28288723 -9.6875 1.4375 C-8.51574219 0.96183594 -7.34398438 0.48617187 -6.13671875 -0.00390625 C-3 -1 -3 -1 0 0 Z " fill="#197373" transform="translate(129,149)"/>
<path d="M0 0 C0 0.33 0 0.66 0 1 C-2.39469729 1.50604924 -4.79051717 2.00499517 -7.1875 2.5 C-7.86103516 2.64308594 -8.53457031 2.78617187 -9.22851562 2.93359375 C-12.87509793 3.68069842 -16.27648957 4.17352282 -20 4 C-19.67 4.99 -19.34 5.98 -19 7 C-19.99 7.495 -19.99 7.495 -21 8 C-21.33 6.02 -21.66 4.04 -22 2 C-19.45887768 1.66198848 -16.91723254 1.32946621 -14.375 1 C-13.66214844 0.90460938 -12.94929688 0.80921875 -12.21484375 0.7109375 C-8.11178391 0.18393899 -4.14754258 -0.10466984 0 0 Z " fill="#B97A2A" transform="translate(126,73)"/>
<path d="M0 0 C6.32966418 0.56263682 12.21835667 2.34924657 18 5 C18.33 5.66 18.66 6.32 19 7 C18.030625 6.690625 17.06125 6.38125 16.0625 6.0625 C12.39529259 4.99445385 8.81766598 4.60962699 5.015625 4.34375 C3 4 3 4 0 2 C0 1.34 0 0.68 0 0 Z " fill="#3F7974" transform="translate(113,9)"/>
<path d="M0 0 C0 0.66 0 1.32 0 2 C-0.99 2 -1.98 2 -3 2 C-3 2.66 -3 3.32 -3 4 C-4.98 4.66 -6.96 5.32 -9 6 C-9 6.66 -9 7.32 -9 8 C-11.31 7.67 -13.62 7.34 -16 7 C-14.43007745 3.8601549 -11.77552998 3.57856654 -8.5625 2.375 C-7.38816406 1.92898437 -6.21382812 1.48296875 -5.00390625 1.0234375 C-2 0 -2 0 0 0 Z " fill="#146265" transform="translate(57,150)"/>
<path d="M0 0 C0.68707555 2.49064888 1 4.37886292 1 7 C1.33 7.66 1.66 8.32 2 9 C1.34 9 0.68 9 0 9 C-0.33 9.66 -0.66 10.32 -1 11 C-3.0625 11.625 -3.0625 11.625 -5 12 C-5.58305225 8.15185513 -4.7002883 6.23691365 -2.5 3.1875 C-1.67780256 2.11635945 -0.84795951 1.0508641 0 0 Z " fill="#1B8688" transform="translate(152,123)"/>
<path d="M0 0 C0.33 0 0.66 0 1 0 C1.21133202 7.04440079 1.07965362 13.24112575 -1 20 C-1.33 20 -1.66 20 -2 20 C-2.26618595 13.04958914 -1.6120509 6.76485645 0 0 Z " fill="#286E6E" transform="translate(175,91)"/>
<path d="M0 0 C0.33 0.66 0.66 1.32 1 2 C1.66 2 2.32 2 3 2 C4.11165232 6.4378561 4.11527763 10.76956386 4.0625 15.3125 C4.05798828 16.05306641 4.05347656 16.79363281 4.04882812 17.55664062 C4.03712175 19.37112899 4.01918898 21.18557534 4 23 C3.67 23 3.34 23 3 23 C2.93941406 22.13117188 2.87882813 21.26234375 2.81640625 20.3671875 C2.73261719 19.21476562 2.64882812 18.06234375 2.5625 16.875 C2.48128906 15.73804687 2.40007812 14.60109375 2.31640625 13.4296875 C2.02269035 10.2459522 1.56875687 7.14489093 1 4 C0.01 3.67 -0.98 3.34 -2 3 C-1.34 2.01 -0.68 1.02 0 0 Z " fill="#EB8D34" transform="translate(140,76)"/>
<path d="M0 0 C0.99 0.66 1.98 1.32 3 2 C1.85845641 3.83600745 0.71165684 5.66874805 -0.4375 7.5 C-1.07558594 8.5209375 -1.71367188 9.541875 -2.37109375 10.59375 C-2.90863281 11.3878125 -3.44617188 12.181875 -4 13 C-4.33 13 -4.66 13 -5 13 C-5 11.02 -5 9.04 -5 7 C-4.34 7 -3.68 7 -3 7 C-3 6.01 -3 5.02 -3 4 C-2.34 4 -1.68 4 -1 4 C-0.67 2.68 -0.34 1.36 0 0 Z " fill="#A95F28" transform="translate(75,92)"/>
<path d="M0 0 C1.32 0.33 2.64 0.66 4 1 C1.03 4.3 -1.94 7.6 -5 11 C-5.33 9.68 -5.66 8.36 -6 7 C-5.34 6.34 -4.68 5.68 -4 5 C-3.01 5 -2.02 5 -1 5 C-0.67 3.35 -0.34 1.7 0 0 Z " fill="#216C6E" transform="translate(156,138)"/>
<path d="M0 0 C0 6.54361232 -2.79393391 10.35119011 -7 15 C-7.33 14.01 -7.66 13.02 -8 12 C-7.01 11.34 -6.02 10.68 -5 10 C-4.30741771 8.00882592 -3.64252365 6.0078864 -3 4 C-1.375 1.625 -1.375 1.625 0 0 Z " fill="#C2782A" transform="translate(65,75)"/>
<path d="M0 0 C2.125 0.375 2.125 0.375 4 1 C1.47354714 5.30983135 -1.49346365 6.29942025 -6 8 C-6 7.34 -6 6.68 -6 6 C-5.34 6 -4.68 6 -4 6 C-3.71125 5.38125 -3.4225 4.7625 -3.125 4.125 C-2 2 -2 2 0 0 Z " fill="#AD5126" transform="translate(107,109)"/>
<path d="M0 0 C0.66 0.33 1.32 0.66 2 1 C2 2.32 2 3.64 2 5 C-1.15506142 5.93619813 -3.96586502 6.1057123 -7.25 6.0625 C-8.14203125 6.05347656 -9.0340625 6.04445313 -9.953125 6.03515625 C-10.62859375 6.02355469 -11.3040625 6.01195313 -12 6 C-12 5.67 -12 5.34 -12 5 C-10.95199219 4.83564453 -10.95199219 4.83564453 -9.8828125 4.66796875 C-8.51769531 4.43013672 -8.51769531 4.43013672 -7.125 4.1875 C-5.76761719 3.96126953 -5.76761719 3.96126953 -4.3828125 3.73046875 C-1.65587522 3.16948699 -1.65587522 3.16948699 0 0 Z " fill="#DF9629" transform="translate(132,67)"/>
<path d="M0 0 C0.33 0.66 0.66 1.32 1 2 C0.01 3.485 0.01 3.485 -1 5 C-1 4.01 -1 3.02 -1 2 C-2.175625 2.5259375 -2.175625 2.5259375 -3.375 3.0625 C-4.674375 3.5265625 -4.674375 3.5265625 -6 4 C-6.66 3.67 -7.32 3.34 -8 3 C-8 2.01 -8 1.02 -8 0 C-4.69693408 -1.10102197 -3.28414305 -0.95067299 0 0 Z " fill="#F7AE1A" transform="translate(128,51)"/>
<path d="M0 0 C1.2380014 3.57644848 0.74926071 6.33694766 0 10 C-0.99 9.67 -1.98 9.34 -3 9 C-3.75 6.75 -3.75 6.75 -4 4 C-2.0625 1.6875 -2.0625 1.6875 0 0 Z " fill="#166B6C" transform="translate(40,148)"/>
<path d="M0 0 C0.66 0.33 1.32 0.66 2 1 C-9.73786408 7 -9.73786408 7 -14 7 C-14 6.01 -14 5.02 -14 4 C-13.11248047 3.81824219 -13.11248047 3.81824219 -12.20703125 3.6328125 C-8.69180288 2.88733177 -5.40231099 2.16263636 -2.0625 0.8125 C-1.381875 0.544375 -0.70125 0.27625 0 0 Z " fill="#1D6366" transform="translate(51,166)"/>
<path d="M0 0 C0.33 0.99 0.66 1.98 1 3 C1.99 3 2.98 3 4 3 C4 3.99 4 4.98 4 6 C4.66 6 5.32 6 6 6 C6.33 7.32 6.66 8.64 7 10 C2.37837838 8.54054054 2.37837838 8.54054054 0.6875 6.125 C0 4 0 4 0 0 Z " fill="#C35B29" transform="translate(51,112)"/>
<path d="M0 0 C0.78375 0.04125 1.5675 0.0825 2.375 0.125 C-1.34526686 3.36001466 -5.91646387 5.69917568 -10.625 7.125 C-12.90625 6.734375 -12.90625 6.734375 -14.625 6.125 C-13.92632812 5.85945312 -13.22765625 5.59390625 -12.5078125 5.3203125 C-11.59773438 4.96710938 -10.68765625 4.61390625 -9.75 4.25 C-8.84507813 3.90195313 -7.94015625 3.55390625 -7.0078125 3.1953125 C-4.03427969 1.85966006 -3.33391844 0.15875802 0 0 Z " fill="#8D3925" transform="translate(120.625,132.875)"/>
<path d="M0 0 C1.485 0.99 1.485 0.99 3 2 C3.51171875 4.6015625 3.51171875 4.6015625 3.6875 7.625 C3.75324219 8.62789062 3.81898437 9.63078125 3.88671875 10.6640625 C3.92410156 11.43492188 3.96148438 12.20578125 4 13 C1.27835324 10.27835324 0.89427524 7.70485455 0 4 C0 2.68 0 1.36 0 0 Z " fill="#1E7679" transform="translate(14,104)"/>
<path d="M0 0 C0.6875 1.75 0.6875 1.75 1 4 C-0.0625 6.1875 -0.0625 6.1875 -2 8 C-5.1875 8.75 -5.1875 8.75 -8 9 C-6.8553125 7.88625 -6.8553125 7.88625 -5.6875 6.75 C-3.5606298 4.5736677 -1.7440044 2.47832204 0 0 Z " fill="#1B6163" transform="translate(146,131)"/>
<path d="M0 0 C1.61725534 3.00950123 2.67582623 5.97103608 3.625 9.25 C3.88539062 10.14203125 4.14578125 11.0340625 4.4140625 11.953125 C4.60742188 12.62859375 4.80078125 13.3040625 5 14 C4.34 14 3.68 14 3 14 C2.67 14.66 2.34 15.32 2 16 C0.80911014 10.61972975 -0.2919519 5.54708616 0 0 Z " fill="#279B9C" transform="translate(27,104)"/>
<path d="M0 0 C2.31 0.33 4.62 0.66 7 1 C7.33 2.32 7.66 3.64 8 5 C5.36 4.67 2.72 4.34 0 4 C0 2.68 0 1.36 0 0 Z " fill="#AE9035" transform="translate(96,31)"/>
<path d="M0 0 C1.32 0.99 2.64 1.98 4 3 C4.61875 2.690625 5.2375 2.38125 5.875 2.0625 C7.25 1.375 8.625 0.6875 10 0 C9.39816251 2.02045442 8.72693904 4.02111039 8 6 C7.01 6.495 7.01 6.495 6 7 C3.95880212 5.38405168 1.95927063 3.7143618 0 2 C0 1.34 0 0.68 0 0 Z " fill="#84351E" transform="translate(91,117)"/>
<path d="M0 0 C3.16115776 1.36983503 3.9927092 1.9890638 6 5 C5.2575 4.773125 4.515 4.54625 3.75 4.3125 C0.94085007 3.70523302 0.94085007 3.70523302 -1.3125 5.4375 C-1.869375 5.953125 -2.42625 6.46875 -3 7 C-2.67 5.35 -2.34 3.7 -2 2 C-1.34 2 -0.68 2 0 2 C0 1.34 0 0.68 0 0 Z " fill="#EB6F2F" transform="translate(80,108)"/>
<path d="M0 0 C-5.625 5 -5.625 5 -9 5 C-7.93411431 2.09303901 -7.29651501 1.15567038 -4.5 -0.3125 C-2 -1 -2 -1 0 0 Z " fill="#218283" transform="translate(143,140)"/>
<path d="M0 0 C1 2 1 2 0.875 4.5 C0 7 0 7 -2.5625 8.3125 C-3.7690625 8.6528125 -3.7690625 8.6528125 -5 9 C-3.7508258 5.54074837 -2.32472205 2.85306797 0 0 Z " fill="#A74620" transform="translate(77,110)"/>
<path d="M0 0 C0 0.33 0 0.66 0 1 C-0.68707031 1.12117187 -1.37414062 1.24234375 -2.08203125 1.3671875 C-3.43361328 1.61855469 -3.43361328 1.61855469 -4.8125 1.875 C-5.70582031 2.03742188 -6.59914063 2.19984375 -7.51953125 2.3671875 C-10.22727846 2.91188449 -10.22727846 2.91188449 -13 5 C-13.66 4.34 -14.32 3.68 -15 3 C-9.78259294 -0.42858179 -6.11224097 -1.57171911 0 0 Z " fill="#12949A" transform="translate(66,162)"/>
<path d="M0 0 C0.556875 0.350625 1.11375 0.70125 1.6875 1.0625 C4.53886783 2.21845993 6.08517222 1.80967438 9 1 C9 1.66 9 2.32 9 3 C6 5 6 5 2.8125 4.625 C1.884375 4.41875 0.95625 4.2125 0 4 C0 2.68 0 1.36 0 0 Z " fill="#13979C" transform="translate(36,155)"/>
<path d="M0 0 C4.05606165 0.46800711 7.46588679 0.87953208 11 3 C11 3.66 11 4.32 11 5 C9.53932801 4.54917531 8.08151968 4.08906463 6.625 3.625 C5.81289062 3.36976562 5.00078125 3.11453125 4.1640625 2.8515625 C2 2 2 2 0 0 Z " fill="#478E85" transform="translate(117,24)"/>
<path d="M0 0 C4.84717418 2.48908945 6.62111262 5.24222524 9 10 C4.71095765 8.4114658 2.67654474 5.56872632 0 2 C0 1.34 0 0.68 0 0 Z " fill="#E05930" transform="translate(86,113)"/>
<path d="M0 0 C0.66 0.33 1.32 0.66 2 1 C0.75 3.5 0.75 3.5 -1 6 C-2.32 6 -3.64 6 -5 6 C-5 6.66 -5 7.32 -5 8 C-5.66 7.67 -6.32 7.34 -7 7 C-4.66666667 4.66666667 -2.33333333 2.33333333 0 0 Z " fill="#316766" transform="translate(42,24)"/>
<path d="M0 0 C1.98 0.99 1.98 0.99 4 2 C3.01 3.485 3.01 3.485 2 5 C1.60986284 6.9896995 1.26797351 8.99019869 1 11 C0.67 11 0.34 11 0 11 C0 7.37 0 3.74 0 0 Z " fill="#138790" transform="translate(26,148)"/>
<path d="M0 0 C0.99 0.33 1.98 0.66 3 1 C3.309375 1.66 3.61875 2.32 3.9375 3 C4.82027141 5.20605562 4.82027141 5.20605562 7.125 5.75 C7.74375 5.8325 8.3625 5.915 9 6 C8.01 6.495 8.01 6.495 7 7 C4.5249829 5.88568235 2.32116581 4.41849022 0 3 C0 2.01 0 1.02 0 0 Z " fill="#884431" transform="translate(63,130)"/>
<path d="M0 0 C0 0.66 0 1.32 0 2 C-1.65532623 3.01866229 -3.32260138 4.01810813 -5 5 C-5.33 5.66 -5.66 6.32 -6 7 C-7.32 6.67 -8.64 6.34 -10 6 C-8.71283353 4.99421411 -7.42011342 3.99553202 -6.125 3 C-5.40570313 2.443125 -4.68640625 1.88625 -3.9453125 1.3125 C-2 0 -2 0 0 0 Z " fill="#2D625F" transform="translate(54,17)"/>
<path d="M0 0 C0 2 0 4 0 6 C-1.98 6.33 -3.96 6.66 -6 7 C-4.19587357 3.73539027 -3.16605307 2.11070205 0 0 Z " fill="#EB6128" transform="translate(105,114)"/>
<path d="M0 0 C0 3.90838866 -1.50567876 5.11594107 -4 8 C-4 6.02 -4 4.04 -4 2 C-2.68 1.34 -1.36 0.68 0 0 Z " fill="#984D25" transform="translate(69,105)"/>
<path d="M0 0 C1.875 0.625 1.875 0.625 4 2 C5.25 5.125 5.25 5.125 6 8 C5.34 8 4.68 8 4 8 C3.34 6.35 2.68 4.7 2 3 C1.34 3 0.68 3 0 3 C0 2.01 0 1.02 0 0 Z " fill="#F3A82F" transform="translate(132,58)"/>
<path d="M0 0 C0.99 0 1.98 0 3 0 C1.92598892 2.91517292 1.22189824 4.77810176 -1 7 C-1.33 5.35 -1.66 3.7 -2 2 C-1.34 2 -0.68 2 0 2 C0 1.34 0 0.68 0 0 Z " fill="#308581" transform="translate(35,50)"/>
<path d="M0 0 C2.12508244 3.18762365 2.5020163 5.26512223 3 9 C0.20127563 6.47211993 -1.45773019 4.79588866 -2 1 C-1.34 0.67 -0.68 0.34 0 0 Z " fill="#187072" transform="translate(22,122)"/>
<path d="M0 0 C0.33 1.32 0.66 2.64 1 4 C0.01 4.66 -0.98 5.32 -2 6 C-2.33 6.99 -2.66 7.98 -3 9 C-3.66 9 -4.32 9 -5 9 C-3.7508258 5.54074837 -2.32472205 2.85306797 0 0 Z " fill="#90592D" transform="translate(60,81)"/>
<path d="M0 0 C-0.33 0.99 -0.66 1.98 -1 3 C-4.3 3 -7.6 3 -11 3 C-11 2.67 -11 2.34 -11 2 C-3.375 0 -3.375 0 0 0 Z " fill="#0F8F98" transform="translate(37,171)"/>
<path d="M0 0 C0.99 0 1.98 0 3 0 C2.67 1.65 2.34 3.3 2 5 C1.01 5 0.02 5 -1 5 C-0.67 3.35 -0.34 1.7 0 0 Z " fill="#B36024" transform="translate(139,108)"/>
<path d="M0 0 C1.9375 0.125 1.9375 0.125 4 1 C5.75 3.0625 5.75 3.0625 7 5 C4 4 1 3 -2 2 C-1.34 1.34 -0.68 0.68 0 0 Z " fill="#644222" transform="translate(120,94)"/>
<path d="M0 0 C0.66 0.99 1.32 1.98 2 3 C-0.35438733 4.42944945 -1.48032433 5.08661261 -4.25 4.625 C-4.8275 4.41875 -5.405 4.2125 -6 4 C-4.02 2.68 -2.04 1.36 0 0 Z " fill="#986026" transform="translate(96,67)"/>
<path d="M0 0 C3 3.75 3 3.75 3 6 C1.35 5.67 -0.3 5.34 -2 5 C-2 4.34 -2 3.68 -2 3 C-1.34 3 -0.68 3 0 3 C0 2.01 0 1.02 0 0 Z " fill="#F6AD1A" transform="translate(117,45)"/>
</svg>
